<svg width="432" height="432" viewBox="0 0 432 432" fill="none" xmlns="http://www.w3.org/2000/svg">
<g clip-path="url(#clip0_1126_5)">
<ellipse cx="218" cy="214" rx="181" ry="191" fill="white"/>
<path d="M195.328 0.929376C127.828 7.9325 68.6811 44.6356 32.7374 101.842C-8.35324 167.148 -10.8001 251.776 26.4093 319.361C43.2843 350.073 67.4999 376.398 97.3686 396.395C117.45 409.811 147.994 422.636 171.281 427.276C189.337 430.904 196.172 431.579 216 431.579C235.912 431.579 244.097 430.736 260.887 427.276C335.137 411.751 397.153 356.232 421.031 283.67C428.794 260.214 431.578 242.242 431.578 216.001C431.578 190.604 428.878 172.717 421.791 150.611C411.328 117.704 393.947 89.1856 369.309 64.2106C335.644 30.1231 293.962 9.11375 245.953 2.02625C235.575 0.507501 205.622 -0.167499 195.328 0.929376ZM331.172 96.695C336.825 99.395 336.656 97.2012 336.656 162.423V221.148L331.847 220.557C310.162 217.942 294.3 205.117 286.706 184.192C285.187 180.057 284.85 176.767 284.512 163.436L284.175 147.657H270.506C250.762 147.657 241.566 145.042 230.091 136.014C219.122 127.323 212.119 114.245 210.684 99.3106L210.262 95.345H269.325C321.384 95.345 328.725 95.5137 331.172 96.695ZM274.134 154.829C279.366 157.529 279.281 156.011 279.281 220.136V278.439H275.737C262.912 278.354 246.628 269.917 238.106 258.864C229.5 247.642 226.969 238.951 226.969 219.714V206.045L211.612 205.707C197.859 205.286 195.412 205.032 189.337 203.092C169.678 196.595 155.756 179.467 153.141 158.373L152.634 153.564H212.203C262.659 153.564 272.109 153.732 274.134 154.829ZM215.409 212.12C216.928 212.711 218.953 214.314 219.797 215.664C221.4 218.026 221.484 220.136 221.737 277.511L221.991 336.911L216.506 336.32C196.678 334.295 179.55 321.132 172.547 302.57C169.931 295.651 168.75 286.623 168.75 273.714V263.251H154.659C138.206 263.251 132.637 262.239 123.694 257.598C114.919 253.042 104.962 242.917 100.912 234.395C97.7905 227.898 95.428 218.87 95.3436 213.639V210.939H153.984C201.656 210.939 213.216 211.192 215.409 212.12Z" fill="#282C34"/>
<circle cx="350.5" cy="350.5" r="81.5" fill="#13C2C2"/>
<g clip-path="url(#clip1_1126_5)">
<path d="M313.67 296.341C312.776 296.724 311.839 297.575 311.371 298.448C311.052 299.023 311.009 300.769 310.945 316.991L310.881 334.916L308.923 335.002C306.538 335.108 305.112 335.683 303.92 336.96C302.195 338.834 302.28 337.79 302.28 357.1C302.28 374.152 302.28 374.237 302.728 375.217C303.877 377.686 305.708 378.814 308.923 378.985L310.881 379.091L310.945 390.502C311.009 403.02 310.966 402.467 312.329 403.765C313.713 405.085 311.03 405 350.5 405C389.97 405 387.288 405.085 388.671 403.765C390.034 402.467 389.991 403.02 390.055 390.502L390.119 379.091L392.078 378.985C395.292 378.814 397.123 377.686 398.273 375.217C398.72 374.237 398.72 374.152 398.72 357.1C398.72 337.79 398.805 338.834 397.081 336.96C395.888 335.683 394.462 335.108 392.078 335.002L390.098 334.916L390.077 328.487C390.055 324.974 389.991 321.845 389.906 321.547C389.736 320.908 368.745 296.852 367.915 296.341C367.404 296.021 364.977 296 340.878 296C317.715 296.021 314.33 296.064 313.67 296.341ZM364.764 311.541V322.824L365.381 323.505L365.999 324.208L375.919 324.272L385.84 324.336V329.637V334.959H350.5H315.16V317.608V300.258H339.962H364.764V311.541ZM349.308 342.197C352.48 343.006 354.801 344.667 356.653 347.434C360.229 352.778 359.931 361.485 355.993 366.595C352.246 371.448 344.39 373.024 338.557 370.086C333.767 367.659 331.042 362.166 331.404 355.716C331.808 348.839 335.726 343.687 341.772 342.112C343.56 341.644 347.328 341.686 349.308 342.197ZM383.03 342.219C384.414 342.431 386.245 342.964 386.543 343.262C386.692 343.389 385.585 348.073 385.329 348.307C385.287 348.35 384.584 348.201 383.775 347.945C381.902 347.349 377.708 347.115 376.026 347.52C371.811 348.52 369.469 351.309 369.107 355.822C368.702 360.719 371.278 364.636 375.664 365.828C376.728 366.105 380.624 366.062 381.114 365.764C381.305 365.637 381.369 364.764 381.369 362.613V359.654H379.134H376.899V357.1V354.545H382.327H387.756L387.713 362.145L387.65 369.767L385.989 370.235C383.115 371.065 379.879 371.427 376.792 371.299C372.087 371.108 369.022 370.001 366.424 367.553C363.699 364.998 362.443 362.081 362.252 357.93C361.89 349.116 367.191 343.006 376.154 341.984C377.793 341.793 380.944 341.899 383.03 342.219ZM318.992 353.906V365.615H324.74H330.488V368.383V371.15H321.441H312.393V356.674V342.197H315.693H318.992V353.906ZM385.84 389.246V399.465H350.5H315.16V389.246V379.027H350.5H385.84V389.246Z" fill="white"/>
<path d="M343.794 347.072C341.793 347.626 340.537 348.733 339.558 350.777C338.642 352.714 338.344 354.119 338.344 356.674C338.344 359.867 339.025 362.188 340.473 363.997C341.75 365.594 343.262 366.296 345.391 366.275C349.351 366.254 351.884 362.89 352.14 357.312C352.246 355.269 352.182 354.566 351.82 353.161C350.841 349.308 348.691 347.158 345.625 346.966C344.965 346.923 344.156 346.987 343.794 347.072Z" fill="white"/>
</g>
</g>
<defs>
<clipPath id="clip0_1126_5">
<rect width="432" height="432" fill="white"/>
</clipPath>
<clipPath id="clip1_1126_5">
<rect width="109" height="109" fill="white" transform="translate(296 296)"/>
</clipPath>
</defs>
</svg>
